# Blender 4.5.4 LTS Release Candidate
# www.blender.org
o Cube
v 0.102500 -0.085500 0.058000
v 0.102500 -0.085500 -0.058000
v -0.102500 -0.085500 -0.058000
v 0.102500 0.085500 0.058000
v 0.102500 0.085500 -0.058000
v -0.102500 0.085500 -0.058000
v -0.026105 -0.085500 0.058000
v -0.102500 -0.030548 0.058000
v -0.102500 -0.085500 0.008079
v -0.102500 0.085500 0.009458
v -0.102500 0.028419 0.058000
v -0.029957 0.085500 0.058000
vn -0.0000 -0.0000 -1.0000
vn 1.0000 -0.0000 -0.0000
vn -0.4354 -0.6053 0.6663
vn -0.4542 0.5772 0.6787
vn -0.0000 -1.0000 -0.0000
vn -1.0000 -0.0000 -0.0000
vn -0.0000 -0.0000 1.0000
vn -0.0000 1.0000 -0.0000
vt 0.375000 0.500000
vt 0.125000 0.750000
vt 0.125000 0.500000
vt 0.625000 0.250000
vt 0.375000 0.250000
vt 0.625000 0.706239
vt 0.647176 0.771585
vt 0.581239 0.750000
vt 0.581239 0.000000
vt 0.625000 0.956238
vt 0.631560 0.061146
vt 0.625000 0.500000
vt 0.375000 0.750000
vt 0.375000 1.000000
vt 0.875000 0.500000
vt 0.831238 0.750000
vt 0.581238 1.000000
vt 0.875000 0.706238
vt 0.375000 0.000000
s 0
f 2/1/1 6/2/1 5/3/1
f 4/4/2 2/1/2 5/5/2
f 7/6/3 8/7/3 9/8/3
f 10/9/4 11/10/4 12/11/4
f 1/12/5 9/8/5 3/13/5
f 9/8/6 11/10/6 6/14/6
f 4/15/7 11/16/7 7/6/7
f 10/9/8 4/4/8 5/5/8
f 2/1/1 3/13/1 6/2/1
f 4/4/2 1/12/2 2/1/2
f 3/13/5 2/1/5 1/12/5
f 1/12/5 7/6/5 9/8/5
f 6/14/6 3/13/6 9/8/6
f 9/8/6 8/7/6 11/10/6
f 11/10/6 10/17/6 6/14/6
f 7/6/7 1/12/7 4/15/7
f 4/15/7 12/18/7 11/16/7
f 11/16/7 8/7/7 7/6/7
f 5/5/8 6/19/8 10/9/8
f 10/9/8 12/11/8 4/4/8
