# Blender 5.1.0
# www.blender.org
o Cube
v 0.070000 -0.035000 0.030000
v 0.070000 -0.035000 -0.030000
v 0.070000 0.035000 0.030000
v 0.070000 0.035000 -0.030000
v 0.000744 -0.035000 0.030000
v 0.000744 0.035000 0.030000
v -0.036356 -0.035000 -0.030000
v -0.070000 -0.018178 -0.030000
v -0.070000 -0.018178 -0.000319
v -0.036356 -0.035000 0.014100
v -0.070000 0.016822 -0.030000
v -0.033644 0.035000 -0.030000
v -0.033644 0.035000 0.015262
v -0.070000 0.016822 -0.000319
vn 1.0000 -0.0000 -0.0000
vn -0.0000 -0.0000 1.0000
vn -0.4472 -0.8944 -0.0000
vn -0.0000 -1.0000 -0.0000
vn -0.4472 0.8944 -0.0000
vn -0.0000 -0.0000 -1.0000
vn -0.0000 1.0000 -0.0000
vn -1.0000 -0.0000 -0.0000
vn -0.3939 -0.0000 0.9191
vt 0.625000 0.250000
vt 0.375000 0.500000
vt 0.375000 0.250000
vt 0.875000 0.500000
vt 0.625000 0.665781
vt 0.625000 0.500000
vt 0.498672 0.810078
vt 0.375000 0.689922
vt 0.558750 0.709948
vt 0.375000 1.000000
vt 0.498672 0.935079
vt 0.531132 1.000000
vt 0.354974 0.790052
vt 0.125000 0.685079
vt 0.563593 0.064921
vt 0.368155 0.928234
vt 0.625000 1.000000
vt 0.875000 0.623672
vt 0.125000 0.500000
vt 0.203612 0.763691
vt 0.375000 0.064921
vt 0.625000 0.126328
s 0
f 3/1/1 2/2/1 4/3/1
f 3/4/2 5/5/2 1/6/2
f 9/7/3 7/8/3 10/9/3
f 1/6/4 10/9/4 7/8/4
f 12/10/5 14/11/5 13/12/5
f 2/2/6 8/13/6 12/14/6
f 13/15/7 3/1/7 4/3/7
f 9/7/8 11/16/8 8/13/8
f 6/17/9 14/11/9 10/9/9
f 3/1/1 1/6/1 2/2/1
f 3/4/2 6/18/2 5/5/2
f 9/7/3 8/13/3 7/8/3
f 7/8/4 2/2/4 1/6/4
f 1/6/4 5/5/4 10/9/4
f 12/10/5 11/16/5 14/11/5
f 12/14/6 4/19/6 2/2/6
f 2/2/6 7/8/6 8/13/6
f 8/13/6 11/20/6 12/14/6
f 4/3/7 12/21/7 13/15/7
f 13/15/7 6/22/7 3/1/7
f 9/7/8 14/11/8 11/16/8
f 10/9/9 5/5/9 6/17/9
f 6/17/9 13/12/9 14/11/9
f 14/11/9 9/7/9 10/9/9
