# Blender 5.1.0
# www.blender.org
o Cube
v 0.110000 -0.055000 0.040000
v 0.110000 -0.055000 -0.040000
v 0.110000 0.055000 0.040000
v 0.110000 0.055000 -0.040000
v 0.006958 -0.055000 0.040000
v 0.006958 0.055000 0.040000
v -0.000037 -0.055000 -0.040000
v -0.110000 -0.000018 -0.040000
v -0.110000 -0.000018 -0.002530
v -0.000037 -0.055000 0.037457
v -0.110000 0.000601 -0.040000
v -0.001202 0.055000 -0.040000
v -0.001202 0.055000 0.037033
v -0.110000 0.000601 -0.002530
vn 1.0000 -0.0000 -0.0000
vn -0.0000 -0.0000 1.0000
vn -0.4472 -0.8944 -0.0000
vn -0.0000 -1.0000 -0.0000
vn -0.4472 0.8944 -0.0000
vn -0.0000 -0.0000 -1.0000
vn -0.0000 1.0000 -0.0000
vn -1.0000 -0.0000 -0.0000
vn -0.3417 -0.0000 0.9398
vt 0.625000 0.250000
vt 0.375000 0.500000
vt 0.375000 0.250000
vt 0.875000 0.500000
vt 0.625000 0.661396
vt 0.625000 0.500000
vt 0.492094 0.874958
vt 0.375000 0.625042
vt 0.617052 0.666695
vt 0.375000 1.000000
vt 0.492094 0.876366
vt 0.553910 1.000000
vt 0.333347 0.833305
vt 0.125000 0.626366
vt 0.615727 0.123634
vt 0.333816 0.835183
vt 0.625000 1.000000
vt 0.875000 0.617093
vt 0.125000 0.500000
vt 0.331001 0.832367
vt 0.375000 0.123634
vt 0.625000 0.132907
s 0
f 3/1/1 2/2/1 4/3/1
f 3/4/2 5/5/2 1/6/2
f 9/7/3 7/8/3 10/9/3
f 1/6/4 10/9/4 7/8/4
f 12/10/5 14/11/5 13/12/5
f 2/2/6 8/13/6 12/14/6
f 13/15/7 3/1/7 4/3/7
f 9/7/8 11/16/8 8/13/8
f 6/17/9 14/11/9 10/9/9
f 3/1/1 1/6/1 2/2/1
f 3/4/2 6/18/2 5/5/2
f 9/7/3 8/13/3 7/8/3
f 7/8/4 2/2/4 1/6/4
f 1/6/4 5/5/4 10/9/4
f 12/10/5 11/16/5 14/11/5
f 12/14/6 4/19/6 2/2/6
f 2/2/6 7/8/6 8/13/6
f 8/13/6 11/20/6 12/14/6
f 4/3/7 12/21/7 13/15/7
f 13/15/7 6/22/7 3/1/7
f 9/7/8 14/11/8 11/16/8
f 10/9/9 5/5/9 6/17/9
f 6/17/9 13/12/9 14/11/9
f 14/11/9 9/7/9 10/9/9
